<svg width="36" height="35" viewBox="0 0 36 35" fill="none" xmlns="http://www.w3.org/2000/svg">
<path d="M32.925 9.57354C31.3564 6.89709 29.2311 4.77896 26.5455 3.21566C23.86 1.65586 20.9293 0.874207 17.7501 0.874207C14.5708 0.874207 11.6367 1.65586 8.9511 3.21566C6.26554 4.77896 4.14021 6.89709 2.57159 9.57354C1.00648 12.25 0.222168 15.1742 0.222168 18.3427C0.222168 22.1497 1.33561 25.5694 3.56598 28.6123C5.79636 31.6516 8.67449 33.7558 12.2039 34.9248C12.6135 35.0016 12.9182 34.9492 13.1177 34.7678C13.3173 34.5863 13.4154 34.356 13.4154 34.0838C13.4154 34.0385 13.4118 33.6302 13.4048 32.8555C13.3978 32.0843 13.3908 31.4074 13.3908 30.8316L12.8656 30.9223C12.5295 30.9851 12.1093 31.0096 11.5981 31.0026C11.0869 30.9956 10.5582 30.9433 10.012 30.8421C9.4623 30.7444 8.9546 30.5175 8.48191 30.1616C8.00923 29.8057 7.6766 29.3381 7.47702 28.7623L7.24943 28.2389C7.09887 27.8899 6.85728 27.5061 6.53165 27.0804C6.20252 26.6582 5.87339 26.3685 5.54076 26.215L5.37969 26.1033C5.27465 26.0266 5.17661 25.9358 5.08208 25.8277C4.99104 25.723 4.92101 25.6148 4.8755 25.5101C4.82998 25.4019 4.86849 25.3147 4.98754 25.2484C5.11009 25.1786 5.33068 25.1472 5.6493 25.1472L6.10448 25.2135C6.4091 25.2728 6.78725 25.4578 7.23542 25.7579C7.6836 26.0614 8.05475 26.4558 8.34186 26.9408C8.692 27.5619 9.11216 28.0365 9.60936 28.361C10.1031 28.6856 10.6037 28.8496 11.1044 28.8496C11.6051 28.8496 12.0393 28.8112 12.407 28.7379C12.7711 28.6611 13.1142 28.5495 13.4329 28.3959C13.5694 27.3805 13.9441 26.5988 14.5498 26.0545C13.6815 25.9637 12.9042 25.8277 12.2109 25.6427C11.5176 25.4613 10.8033 25.1646 10.068 24.7564C9.32925 24.3481 8.71651 23.8386 8.22981 23.2349C7.74312 22.6278 7.34397 21.8322 7.03234 20.8481C6.72072 19.8606 6.56316 18.723 6.56316 17.4354C6.56316 15.5999 7.1654 14.0401 8.36637 12.749C7.80265 11.3706 7.85517 9.82478 8.52743 8.11144C8.9686 7.97535 9.62336 8.07654 10.4917 8.41851C11.36 8.76049 11.9938 9.0536 12.3965 9.29438C12.7991 9.53864 13.1247 9.74453 13.3663 9.90853C14.7809 9.51422 16.241 9.31881 17.7501 9.31881C19.2556 9.31881 20.7157 9.51771 22.1338 9.90853L23.0021 9.36068C23.5938 8.99777 24.2941 8.66278 25.1029 8.35919C25.9083 8.05561 26.5245 7.97186 26.9517 8.11144C27.6344 9.82478 27.6975 11.3706 27.1337 12.7525C28.3312 14.0331 28.9334 15.5964 28.9334 17.4319C28.9334 18.7195 28.7759 19.8606 28.4643 20.8551C28.1526 21.8496 27.75 22.6452 27.2563 23.2419C26.7626 23.8421 26.1464 24.3446 25.4076 24.7564C24.6688 25.1646 23.9545 25.4613 23.2647 25.6427C22.5714 25.8242 21.7941 25.9603 20.9258 26.0545C21.7171 26.7384 22.1128 27.8132 22.1128 29.2823V34.0803C22.1128 34.3525 22.2073 34.5793 22.3999 34.7608C22.589 34.9422 22.8901 34.9981 23.2997 34.9213C26.8291 33.7523 29.7073 31.6481 31.9376 28.6088C34.168 25.5694 35.2814 22.1462 35.2814 18.3427C35.2744 15.1742 34.4901 12.25 32.925 9.57354Z" fill="#1A73E8"/>
</svg>
