<svg width="23" height="41" viewBox="0 0 23 41" fill="none" xmlns="http://www.w3.org/2000/svg">
<path d="M14.375 40.625H8.625V34.875H14.375V40.625Z" fill="#DADADA"/>
<path d="M20.3263 18.3438L17.7388 20.9888C15.6688 23.0875 14.375 24.8125 14.375 29.125H8.625V27.6875C8.625 24.525 9.91875 21.65 11.9888 19.5513L15.5537 15.9287C16.6175 14.8937 17.25 13.4563 17.25 11.875C17.25 8.7125 14.6625 6.125 11.5 6.125C8.3375 6.125 5.75 8.7125 5.75 11.875H0C0 5.52125 5.14625 0.375 11.5 0.375C17.8538 0.375 23 5.52125 23 11.875C23 14.405 21.965 16.705 20.3263 18.3438Z" fill="#DADADA"/>
</svg>
