<svg width="27" height="42" viewBox="0 0 27 42" fill="none" xmlns="http://www.w3.org/2000/svg">
<path fill-rule="evenodd" clip-rule="evenodd" d="M16.6484 3.19977C22.5525 4.7511 26.9013 10.052 26.9013 16.3527V34.788C26.9013 38.6355 23.7327 41.7545 19.8241 41.7545H10.2722C6.36364 41.7545 3.1951 38.6355 3.1951 34.788V16.2494C1.58814 14.5825 0.602234 12.3298 0.602234 9.85038C0.602234 4.71536 4.8311 0.552612 10.0477 0.552612C12.6164 0.552612 14.9456 1.56198 16.6484 3.19977Z" fill="#7ECBBD"/>
<path fill-rule="evenodd" clip-rule="evenodd" d="M12.7648 17.955C12.1893 17.955 11.7228 17.4884 11.7228 16.9129L11.7228 16.0755C11.7228 15.5 12.1893 15.0334 12.7648 15.0334C13.3403 15.0334 13.8068 15.5 13.8068 16.0755L13.8068 16.9129C13.8068 17.4884 13.3403 17.955 12.7648 17.955Z" fill="white"/>
<path fill-rule="evenodd" clip-rule="evenodd" d="M16.5159 17.955C15.9404 17.955 15.4739 17.4884 15.4739 16.9129L15.4739 16.0755C15.4739 15.5 15.9404 15.0334 16.5159 15.0334C17.0914 15.0334 17.5579 15.5 17.5579 16.0755L17.5579 16.9129C17.5579 17.4884 17.0914 17.955 16.5159 17.955Z" fill="white"/>
</svg>
